# xmcd CD database file
#
# Track frame offsets:
#	150
#	86100
#	159300
#	194475
#	235050
#	258375
#	278337
#	298587
#
# Disc length: 4160 seconds
#
# Revision: 0
# Processed by: cddbd v1.5.1PL0 Copyright (c) Steve Scherf et al.
# Submitted via: CDex 1.50
#
DISCID=68103e08
DTITLE=武満徹 - ノヴェンバー・ステップス、他
DYEAR=2000
DGENRE=Classical
TTITLE0=November Steps／ノヴェンバー・ステップス
TTITLE1=A String around Autumn／ア・ストリング・アラウンド・オータム [1989] (ヴィオラとオーケストラのための)
TTITLE2=Requiem／弦楽のためのレクイエム
TTITLE3=Ceremonial／セレモニアル [1992] (オーケストラと笙のための)
TTITLE4=My Way of Life -In Memory of Michael Vyner-／マイ・ウェイ・オブ・ライフ -マイケル・ヴァイナーの追憶に- [1990] (バリトン、混声合唱、オーケストラのための) - 01 - I was once asked／生活作法ということを聞いて
TTITLE5=My Way of Life -In Memory of Michael Vyner-／マイ・ウェイ・オブ・ライフ -マイケル・ヴァイナーの追憶に- [1990] (バリトン、混声合唱、オーケストラのための) - 02 - To a discerning eye／見る人が見たら
TTITLE6=My Way of Life -In Memory of Michael Vyner-／マイ・ウェイ・オブ・ライフ -マイケル・ヴァイナーの追憶に- [1990] (バリトン、混声合唱、オーケストラのための) - 03 - A human being has its own way of life／人には、人の生活様式があり
TTITLE7=My Way of Life -In Memory of Michael Vyner-／マイ・ウェイ・オブ・ライフ -マイケル・ヴァイナーの追憶に- [1990] (バリトン、混声合唱、オーケストラのための) - 04 - It is not time that passes on／時が過ぎるのではない
EXTD=YEAR: 2000
EXTT0=
EXTT1=
EXTT2=
EXTT3=
EXTT4=
EXTT5=
EXTT6=
EXTT7=
PLAYORDER=
